<svg width="1622" height="367" viewBox="0 0 1622 367" fill="none" xmlns="http://www.w3.org/2000/svg">
<path d="M278.734 83.3438L244.984 272.344C244.234 276.094 242.547 279.328 239.922 282.047C237.297 284.766 234.109 286.5 230.359 287.25C226.516 287.906 222.859 287.484 219.391 285.984C216.016 284.484 213.344 282.141 211.375 278.953L144.438 168.984L77.3594 278.953C75.7656 281.672 73.5625 283.781 70.75 285.281C68.0312 286.781 65.0781 287.531 61.8906 287.531C57.4844 287.531 53.5938 286.125 50.2188 283.312C46.8438 280.5 44.7812 276.844 44.0312 272.344L10 83.3438H47.125L71.3125 216.516L128.969 124.547C130.562 121.828 132.719 119.719 135.438 118.219C138.25 116.719 141.25 115.969 144.438 115.969C147.625 115.969 150.578 116.719 153.297 118.219C156.016 119.719 158.266 121.828 160.047 124.547L217.422 216.516L241.609 83.3438H278.734ZM346.938 165.75H475.328V83.3438H511.891V285H475.328V202.594H346.938V285H310.375V83.3438H346.938V165.75ZM752.641 285H716.078V235.5H587.547V285H550.984V184.172C550.984 169.453 553.516 155.906 558.578 143.531C563.641 131.156 570.672 120.516 579.672 111.609C588.672 102.703 599.312 95.7656 611.594 90.7969C623.875 85.8281 637.281 83.3438 651.812 83.3438H734.219C736.75 83.3438 739.141 83.8125 741.391 84.75C743.641 85.6875 745.609 87 747.297 88.6875C748.984 90.375 750.297 92.3438 751.234 94.5938C752.172 96.8438 752.641 99.2344 752.641 101.766V285ZM587.547 198.938H716.078V119.906H651.812C650.688 119.906 648.297 120.094 644.641 120.469C641.078 120.75 636.906 121.547 632.125 122.859C627.438 124.172 622.469 126.188 617.219 128.906C611.969 131.625 607.141 135.375 602.734 140.156C598.328 144.938 594.672 150.938 591.766 158.156C588.953 165.281 587.547 173.953 587.547 184.172V198.938ZM977.5 119.906H896.922V285H860.359V119.906H779.641V83.3438H977.5V119.906ZM1198.28 225.656C1198.28 232.875 1197.34 239.391 1195.47 245.203C1193.69 250.922 1191.3 255.984 1188.3 260.391C1185.3 264.797 1181.78 268.547 1177.75 271.641C1173.72 274.734 1169.55 277.266 1165.23 279.234C1160.92 281.203 1156.52 282.656 1152.02 283.594C1147.61 284.531 1143.44 285 1139.5 285H998.453V248.438H1139.5C1146.53 248.438 1151.97 246.375 1155.81 242.25C1159.75 238.125 1161.72 232.594 1161.72 225.656C1161.72 222.281 1161.2 219.188 1160.17 216.375C1159.14 213.562 1157.64 211.125 1155.67 209.062C1153.8 207 1151.45 205.406 1148.64 204.281C1145.92 203.156 1142.88 202.594 1139.5 202.594H1055.41C1049.5 202.594 1043.12 201.562 1036.28 199.5C1029.44 197.344 1023.06 193.922 1017.16 189.234C1011.34 184.547 1006.47 178.406 1002.53 170.812C998.688 163.219 996.766 153.938 996.766 142.969C996.766 132 998.688 122.766 1002.53 115.266C1006.47 107.672 1011.34 101.531 1017.16 96.8438C1023.06 92.0625 1029.44 88.6406 1036.28 86.5781C1043.12 84.4219 1049.5 83.3438 1055.41 83.3438H1179.86V119.906H1055.41C1048.47 119.906 1043.03 122.016 1039.09 126.234C1035.25 130.453 1033.33 136.031 1033.33 142.969C1033.33 150 1035.25 155.578 1039.09 159.703C1043.03 163.734 1048.47 165.75 1055.41 165.75H1139.5H1139.78C1143.72 165.844 1147.89 166.406 1152.3 167.438C1156.7 168.375 1161.06 169.875 1165.38 171.938C1169.78 174 1173.95 176.625 1177.89 179.812C1181.83 182.906 1185.3 186.656 1188.3 191.062C1191.39 195.469 1193.83 200.531 1195.61 206.25C1197.39 211.969 1198.28 218.438 1198.28 225.656ZM1398.25 233.672C1398.25 240.984 1396.98 247.781 1394.45 254.062C1391.92 260.344 1388.36 265.781 1383.77 270.375C1379.27 274.969 1373.88 278.578 1367.59 281.203C1361.31 283.734 1354.47 285 1347.06 285H1213.05V248.438H1347.06C1351.56 248.438 1355.08 247.172 1357.61 244.641C1360.14 242.016 1361.41 238.359 1361.41 233.672V83.3438H1398.25V233.672ZM1567.98 169.547H1485.72C1480.75 169.547 1477 170.812 1474.47 173.344C1471.94 175.781 1470.67 179.391 1470.67 184.172V285H1434.11V184.172C1434.11 177.891 1434.91 172.266 1436.5 167.297C1438.09 162.328 1440.2 157.969 1442.83 154.219C1445.55 150.375 1448.64 147.141 1452.11 144.516C1455.58 141.797 1459.19 139.594 1462.94 137.906C1466.78 136.219 1470.62 135 1474.47 134.25C1478.41 133.406 1482.06 132.984 1485.44 132.984H1567.98V169.547ZM1610.59 266.578C1610.59 269.109 1610.08 271.5 1609.05 273.75C1608.11 275.906 1606.8 277.828 1605.11 279.516C1603.52 281.109 1601.59 282.375 1599.34 283.312C1597.19 284.25 1594.89 284.719 1592.45 284.719C1589.92 284.719 1587.53 284.25 1585.28 283.312C1583.12 282.375 1581.2 281.109 1579.52 279.516C1577.92 277.828 1576.66 275.906 1575.72 273.75C1574.78 271.5 1574.31 269.109 1574.31 266.578C1574.31 264.141 1574.78 261.844 1575.72 259.688C1576.66 257.438 1577.92 255.516 1579.52 253.922C1581.2 252.234 1583.12 250.922 1585.28 249.984C1587.53 248.953 1589.92 248.438 1592.45 248.438C1594.89 248.438 1597.19 248.953 1599.34 249.984C1601.59 250.922 1603.52 252.234 1605.11 253.922C1606.8 255.516 1608.11 257.438 1609.05 259.688C1610.08 261.844 1610.59 264.141 1610.59 266.578Z" fill="#354AFC"/>
</svg>
